<mxfile host="65bd71144e" modified="2021-02-10T02:09:19.898Z" agent="5.0 (Windows NT 10.0; Win64; x64) AppleWebKit/537.36 (KHTML, like Gecko) Code-Insiders/1.54.0-insider Chrome/87.0.4280.141 Electron/11.2.3 Safari/537.36" etag="5imGAMQdnV7vN5ll12e7" version="14.2.4" type="embed">
    <diagram id="C5RBs43oDa-KdzZeNtuy" name="Class Diagram">
        <mxGraphModel dx="525" dy="745" grid="1" gridSize="10" guides="1" tooltips="1" connect="1" arrows="1" fold="1" page="1" pageScale="1" pageWidth="827" pageHeight="1169" math="0" shadow="0">
            <root>
                <mxCell id="WIyWlLk6GJQsqaUBKTNV-0"/>
                <mxCell id="WIyWlLk6GJQsqaUBKTNV-1" parent="WIyWlLk6GJQsqaUBKTNV-0"/>
                <mxCell id="qviXmVmv1awcpWfoup3k-0" value="Ship&lt;size&gt;" style="swimlane;fontStyle=1;align=center;verticalAlign=top;childLayout=stackLayout;horizontal=1;startSize=26;horizontalStack=0;resizeParent=1;resizeParentMax=0;resizeLast=0;collapsible=1;marginBottom=0;" parent="WIyWlLk6GJQsqaUBKTNV-1" vertex="1">
                    <mxGeometry x="140" y="230" width="160" height="164" as="geometry">
                        <mxRectangle x="140" y="230" width="60" height="26" as="alternateBounds"/>
                    </mxGeometry>
                </mxCell>
                <mxCell id="qviXmVmv1awcpWfoup3k-6" value="+ type: ShipType" style="text;strokeColor=none;fillColor=none;align=left;verticalAlign=top;spacingLeft=4;spacingRight=4;overflow=hidden;rotatable=0;points=[[0,0.5],[1,0.5]];portConstraint=eastwest;" parent="qviXmVmv1awcpWfoup3k-0" vertex="1">
                    <mxGeometry y="26" width="160" height="26" as="geometry"/>
                </mxCell>
                <mxCell id="qviXmVmv1awcpWfoup3k-10" value="+ hits: array&lt;size, bool&gt;" style="text;strokeColor=none;fillColor=none;align=left;verticalAlign=top;spacingLeft=4;spacingRight=4;overflow=hidden;rotatable=0;points=[[0,0.5],[1,0.5]];portConstraint=eastwest;" parent="qviXmVmv1awcpWfoup3k-0" vertex="1">
                    <mxGeometry y="52" width="160" height="26" as="geometry"/>
                </mxCell>
                <mxCell id="qviXmVmv1awcpWfoup3k-11" value="+ position: Point" style="text;strokeColor=none;fillColor=none;align=left;verticalAlign=top;spacingLeft=4;spacingRight=4;overflow=hidden;rotatable=0;points=[[0,0.5],[1,0.5]];portConstraint=eastwest;" parent="qviXmVmv1awcpWfoup3k-0" vertex="1">
                    <mxGeometry y="78" width="160" height="26" as="geometry"/>
                </mxCell>
                <mxCell id="qviXmVmv1awcpWfoup3k-21" value="+ bearing: Cardinal" style="text;strokeColor=none;fillColor=none;align=left;verticalAlign=top;spacingLeft=4;spacingRight=4;overflow=hidden;rotatable=0;points=[[0,0.5],[1,0.5]];portConstraint=eastwest;" parent="qviXmVmv1awcpWfoup3k-0" vertex="1">
                    <mxGeometry y="104" width="160" height="26" as="geometry"/>
                </mxCell>
                <mxCell id="qviXmVmv1awcpWfoup3k-2" value="" style="line;strokeWidth=1;fillColor=none;align=left;verticalAlign=middle;spacingTop=-1;spacingLeft=3;spacingRight=3;rotatable=0;labelPosition=right;points=[];portConstraint=eastwest;" parent="qviXmVmv1awcpWfoup3k-0" vertex="1">
                    <mxGeometry y="130" width="160" height="8" as="geometry"/>
                </mxCell>
                <mxCell id="qviXmVmv1awcpWfoup3k-3" value="+ method(type): type" style="text;strokeColor=none;fillColor=none;align=left;verticalAlign=top;spacingLeft=4;spacingRight=4;overflow=hidden;rotatable=0;points=[[0,0.5],[1,0.5]];portConstraint=eastwest;" parent="qviXmVmv1awcpWfoup3k-0" vertex="1">
                    <mxGeometry y="138" width="160" height="26" as="geometry"/>
                </mxCell>
                <mxCell id="qviXmVmv1awcpWfoup3k-7" value="&lt;p style=&quot;margin: 0px ; margin-top: 4px ; text-align: center ; text-decoration: underline&quot;&gt;&lt;b&gt;ShipType : enum&lt;/b&gt;&lt;/p&gt;&lt;hr&gt;&lt;p style=&quot;margin: 0px ; margin-left: 8px&quot;&gt;Carrier&lt;/p&gt;&lt;p style=&quot;margin: 0px ; margin-left: 8px&quot;&gt;Battleship&lt;/p&gt;&lt;p style=&quot;margin: 0px ; margin-left: 8px&quot;&gt;Destroyer&lt;/p&gt;&lt;p style=&quot;margin: 0px ; margin-left: 8px&quot;&gt;Submarine&lt;/p&gt;&lt;p style=&quot;margin: 0px ; margin-left: 8px&quot;&gt;Patrol Boat&lt;/p&gt;" style="verticalAlign=top;align=left;overflow=fill;fontSize=12;fontFamily=Helvetica;html=1;direction=west;" parent="WIyWlLk6GJQsqaUBKTNV-1" vertex="1">
                    <mxGeometry x="334" y="40" width="160" height="110" as="geometry"/>
                </mxCell>
                <mxCell id="qviXmVmv1awcpWfoup3k-9" style="edgeStyle=orthogonalEdgeStyle;rounded=0;orthogonalLoop=1;jettySize=auto;html=1;shadow=1;startArrow=none;startFill=0;endArrow=none;endFill=0;" parent="WIyWlLk6GJQsqaUBKTNV-1" source="qviXmVmv1awcpWfoup3k-6" target="qviXmVmv1awcpWfoup3k-7" edge="1">
                    <mxGeometry relative="1" as="geometry"/>
                </mxCell>
                <mxCell id="qviXmVmv1awcpWfoup3k-20" value="5" style="endArrow=diamondThin;html=1;endSize=12;startArrow=none;startSize=14;startFill=0;align=left;verticalAlign=bottom;shadow=1;strokeColor=#f0f0f0;exitX=1;exitY=0.5;exitDx=0;exitDy=0;edgeStyle=orthogonalEdgeStyle;rounded=0;endFill=1;" parent="WIyWlLk6GJQsqaUBKTNV-1" source="qviXmVmv1awcpWfoup3k-11" target="qviXmVmv1awcpWfoup3k-12" edge="1">
                    <mxGeometry x="-0.9048" relative="1" as="geometry">
                        <mxPoint x="260" y="420" as="sourcePoint"/>
                        <mxPoint x="420" y="420" as="targetPoint"/>
                        <mxPoint as="offset"/>
                    </mxGeometry>
                </mxCell>
                <mxCell id="qviXmVmv1awcpWfoup3k-22" value="&lt;p style=&quot;margin: 0px ; margin-top: 4px ; text-align: center ; text-decoration: underline&quot;&gt;&lt;b&gt;Cardinal : enum&lt;/b&gt;&lt;/p&gt;&lt;hr&gt;&lt;p style=&quot;margin: 0px ; margin-left: 8px&quot;&gt;North&lt;/p&gt;&lt;p style=&quot;margin: 0px ; margin-left: 8px&quot;&gt;South&lt;/p&gt;&lt;p style=&quot;margin: 0px ; margin-left: 8px&quot;&gt;East&lt;/p&gt;&lt;p style=&quot;margin: 0px ; margin-left: 8px&quot;&gt;West&lt;/p&gt;" style="verticalAlign=top;align=left;overflow=fill;fontSize=12;fontFamily=Helvetica;html=1;direction=west;" parent="WIyWlLk6GJQsqaUBKTNV-1" vertex="1">
                    <mxGeometry x="140" y="50" width="160" height="90" as="geometry"/>
                </mxCell>
                <mxCell id="qviXmVmv1awcpWfoup3k-23" style="edgeStyle=orthogonalEdgeStyle;rounded=0;orthogonalLoop=1;jettySize=auto;html=1;shadow=1;startArrow=none;startFill=0;endArrow=none;endFill=0;" parent="WIyWlLk6GJQsqaUBKTNV-1" source="qviXmVmv1awcpWfoup3k-0" target="qviXmVmv1awcpWfoup3k-22" edge="1">
                    <mxGeometry relative="1" as="geometry">
                        <mxPoint x="310" y="279.0000000000001" as="sourcePoint"/>
                        <mxPoint x="424.0344827586207" y="160" as="targetPoint"/>
                    </mxGeometry>
                </mxCell>
                <mxCell id="qviXmVmv1awcpWfoup3k-12" value="Player" style="swimlane;fontStyle=1;align=center;verticalAlign=top;childLayout=stackLayout;horizontal=1;startSize=26;horizontalStack=0;resizeParent=1;resizeParentMax=0;resizeLast=0;collapsible=1;marginBottom=0;" parent="WIyWlLk6GJQsqaUBKTNV-1" vertex="1">
                    <mxGeometry x="510" y="226" width="280" height="190" as="geometry">
                        <mxRectangle x="140" y="230" width="60" height="26" as="alternateBounds"/>
                    </mxGeometry>
                </mxCell>
                <mxCell id="qviXmVmv1awcpWfoup3k-13" value="+ Carrier: Ship&lt;5&gt;" style="text;strokeColor=none;fillColor=none;align=left;verticalAlign=top;spacingLeft=4;spacingRight=4;overflow=hidden;rotatable=0;points=[[0,0.5],[1,0.5]];portConstraint=eastwest;" parent="qviXmVmv1awcpWfoup3k-12" vertex="1">
                    <mxGeometry y="26" width="280" height="26" as="geometry"/>
                </mxCell>
                <mxCell id="qviXmVmv1awcpWfoup3k-14" value="+ Battleship: Ship&lt;4&gt;" style="text;strokeColor=none;fillColor=none;align=left;verticalAlign=top;spacingLeft=4;spacingRight=4;overflow=hidden;rotatable=0;points=[[0,0.5],[1,0.5]];portConstraint=eastwest;" parent="qviXmVmv1awcpWfoup3k-12" vertex="1">
                    <mxGeometry y="52" width="280" height="26" as="geometry"/>
                </mxCell>
                <mxCell id="qviXmVmv1awcpWfoup3k-15" value="+ Destoyer: Ship&lt;3&gt;" style="text;strokeColor=none;fillColor=none;align=left;verticalAlign=top;spacingLeft=4;spacingRight=4;overflow=hidden;rotatable=0;points=[[0,0.5],[1,0.5]];portConstraint=eastwest;" parent="qviXmVmv1awcpWfoup3k-12" vertex="1">
                    <mxGeometry y="78" width="280" height="26" as="geometry"/>
                </mxCell>
                <mxCell id="qviXmVmv1awcpWfoup3k-16" value="+ Submarine: Ship&lt;3&gt;" style="text;strokeColor=none;fillColor=none;align=left;verticalAlign=top;spacingLeft=4;spacingRight=4;overflow=hidden;rotatable=0;points=[[0,0.5],[1,0.5]];portConstraint=eastwest;" parent="qviXmVmv1awcpWfoup3k-12" vertex="1">
                    <mxGeometry y="104" width="280" height="26" as="geometry"/>
                </mxCell>
                <mxCell id="qviXmVmv1awcpWfoup3k-19" value="+ Patrol Boat: Ship&lt;2&gt;" style="text;strokeColor=none;fillColor=none;align=left;verticalAlign=top;spacingLeft=4;spacingRight=4;overflow=hidden;rotatable=0;points=[[0,0.5],[1,0.5]];portConstraint=eastwest;" parent="qviXmVmv1awcpWfoup3k-12" vertex="1">
                    <mxGeometry y="130" width="280" height="26" as="geometry"/>
                </mxCell>
                <mxCell id="qviXmVmv1awcpWfoup3k-17" value="" style="line;strokeWidth=1;fillColor=none;align=left;verticalAlign=middle;spacingTop=-1;spacingLeft=3;spacingRight=3;rotatable=0;labelPosition=right;points=[];portConstraint=eastwest;" parent="qviXmVmv1awcpWfoup3k-12" vertex="1">
                    <mxGeometry y="156" width="280" height="8" as="geometry"/>
                </mxCell>
                <mxCell id="qviXmVmv1awcpWfoup3k-18" value="+ Player(PlacementStrategy, ShotStrategy)" style="text;strokeColor=none;fillColor=none;align=left;verticalAlign=top;spacingLeft=4;spacingRight=4;overflow=hidden;rotatable=0;points=[[0,0.5],[1,0.5]];portConstraint=eastwest;" parent="qviXmVmv1awcpWfoup3k-12" vertex="1">
                    <mxGeometry y="164" width="280" height="26" as="geometry"/>
                </mxCell>
                <mxCell id="qviXmVmv1awcpWfoup3k-38" value="" style="endArrow=diamondThin;html=1;endSize=12;startArrow=none;startSize=14;startFill=0;align=left;verticalAlign=bottom;shadow=1;strokeColor=#f0f0f0;edgeStyle=orthogonalEdgeStyle;rounded=0;endFill=1;" parent="WIyWlLk6GJQsqaUBKTNV-1" source="qviXmVmv1awcpWfoup3k-67" target="qviXmVmv1awcpWfoup3k-12" edge="1">
                    <mxGeometry x="-0.9048" relative="1" as="geometry">
                        <mxPoint x="460.0344827586207" y="630" as="sourcePoint"/>
                        <mxPoint x="494" y="430" as="targetPoint"/>
                        <mxPoint as="offset"/>
                    </mxGeometry>
                </mxCell>
                <mxCell id="qviXmVmv1awcpWfoup3k-39" value="" style="endArrow=diamondThin;html=1;endSize=12;startArrow=none;startSize=14;startFill=0;align=left;verticalAlign=bottom;shadow=1;strokeColor=#f0f0f0;edgeStyle=orthogonalEdgeStyle;rounded=0;endFill=1;" parent="WIyWlLk6GJQsqaUBKTNV-1" source="qviXmVmv1awcpWfoup3k-66" target="qviXmVmv1awcpWfoup3k-12" edge="1">
                    <mxGeometry x="-0.9048" relative="1" as="geometry">
                        <mxPoint x="650" y="630" as="sourcePoint"/>
                        <mxPoint x="504" y="440" as="targetPoint"/>
                        <mxPoint as="offset"/>
                    </mxGeometry>
                </mxCell>
                <mxCell id="qviXmVmv1awcpWfoup3k-40" value="GameManager" style="swimlane;fontStyle=1;align=center;verticalAlign=top;childLayout=stackLayout;horizontal=1;startSize=26;horizontalStack=0;resizeParent=1;resizeParentMax=0;resizeLast=0;collapsible=1;marginBottom=0;" parent="WIyWlLk6GJQsqaUBKTNV-1" vertex="1">
                    <mxGeometry x="80" y="503" width="180" height="138" as="geometry">
                        <mxRectangle x="140" y="230" width="60" height="26" as="alternateBounds"/>
                    </mxGeometry>
                </mxCell>
                <mxCell id="qviXmVmv1awcpWfoup3k-41" value="+ boards: array&lt;size, Board&gt;" style="text;strokeColor=none;fillColor=none;align=left;verticalAlign=top;spacingLeft=4;spacingRight=4;overflow=hidden;rotatable=0;points=[[0,0.5],[1,0.5]];portConstraint=eastwest;" parent="qviXmVmv1awcpWfoup3k-40" vertex="1">
                    <mxGeometry y="26" width="180" height="26" as="geometry"/>
                </mxCell>
                <mxCell id="qviXmVmv1awcpWfoup3k-42" value="+ players: array&lt;size, Player&gt;" style="text;strokeColor=none;fillColor=none;align=left;verticalAlign=top;spacingLeft=4;spacingRight=4;overflow=hidden;rotatable=0;points=[[0,0.5],[1,0.5]];portConstraint=eastwest;" parent="qviXmVmv1awcpWfoup3k-40" vertex="1">
                    <mxGeometry y="52" width="180" height="26" as="geometry"/>
                </mxCell>
                <mxCell id="qviXmVmv1awcpWfoup3k-65" value="+ turnCount: uint" style="text;strokeColor=none;fillColor=none;align=left;verticalAlign=top;spacingLeft=4;spacingRight=4;overflow=hidden;rotatable=0;points=[[0,0.5],[1,0.5]];portConstraint=eastwest;" parent="qviXmVmv1awcpWfoup3k-40" vertex="1">
                    <mxGeometry y="78" width="180" height="26" as="geometry"/>
                </mxCell>
                <mxCell id="qviXmVmv1awcpWfoup3k-45" value="" style="line;strokeWidth=1;fillColor=none;align=left;verticalAlign=middle;spacingTop=-1;spacingLeft=3;spacingRight=3;rotatable=0;labelPosition=right;points=[];portConstraint=eastwest;" parent="qviXmVmv1awcpWfoup3k-40" vertex="1">
                    <mxGeometry y="104" width="180" height="8" as="geometry"/>
                </mxCell>
                <mxCell id="qviXmVmv1awcpWfoup3k-46" value="+ Run(uint rounds): void" style="text;strokeColor=none;fillColor=none;align=left;verticalAlign=top;spacingLeft=4;spacingRight=4;overflow=hidden;rotatable=0;points=[[0,0.5],[1,0.5]];portConstraint=eastwest;" parent="qviXmVmv1awcpWfoup3k-40" vertex="1">
                    <mxGeometry y="112" width="180" height="26" as="geometry"/>
                </mxCell>
                <mxCell id="qviXmVmv1awcpWfoup3k-47" value="ExampleShotStrategy" style="swimlane;fontStyle=1;align=center;verticalAlign=top;childLayout=stackLayout;horizontal=1;startSize=26;horizontalStack=0;resizeParent=1;resizeParentMax=0;resizeLast=0;collapsible=1;marginBottom=0;" parent="WIyWlLk6GJQsqaUBKTNV-1" vertex="1">
                    <mxGeometry x="380" y="840" width="160" height="34" as="geometry">
                        <mxRectangle x="140" y="230" width="60" height="26" as="alternateBounds"/>
                    </mxGeometry>
                </mxCell>
                <mxCell id="qviXmVmv1awcpWfoup3k-61" value="" style="endArrow=classicThin;endFill=1;endSize=12;html=1;shadow=1;strokeColor=#f0f0f0;" parent="WIyWlLk6GJQsqaUBKTNV-1" source="qviXmVmv1awcpWfoup3k-47" target="qviXmVmv1awcpWfoup3k-66" edge="1">
                    <mxGeometry width="160" relative="1" as="geometry">
                        <mxPoint x="160" y="910" as="sourcePoint"/>
                        <mxPoint x="460" y="794" as="targetPoint"/>
                    </mxGeometry>
                </mxCell>
                <mxCell id="qviXmVmv1awcpWfoup3k-62" value="" style="endArrow=classicThin;endFill=1;endSize=12;html=1;shadow=1;strokeColor=#f0f0f0;" parent="WIyWlLk6GJQsqaUBKTNV-1" source="qviXmVmv1awcpWfoup3k-54" target="qviXmVmv1awcpWfoup3k-67" edge="1">
                    <mxGeometry width="160" relative="1" as="geometry">
                        <mxPoint x="160" y="970" as="sourcePoint"/>
                        <mxPoint x="650" y="794" as="targetPoint"/>
                    </mxGeometry>
                </mxCell>
                <mxCell id="qviXmVmv1awcpWfoup3k-64" value="2" style="endArrow=diamondThin;html=1;endSize=12;startArrow=none;startSize=14;startFill=0;align=left;verticalAlign=bottom;shadow=1;strokeColor=#f0f0f0;edgeStyle=orthogonalEdgeStyle;rounded=0;endFill=1;" parent="WIyWlLk6GJQsqaUBKTNV-1" source="qviXmVmv1awcpWfoup3k-12" target="qviXmVmv1awcpWfoup3k-40" edge="1">
                    <mxGeometry x="-0.9048" relative="1" as="geometry">
                        <mxPoint x="290" y="450" as="sourcePoint"/>
                        <mxPoint x="500" y="450" as="targetPoint"/>
                        <mxPoint as="offset"/>
                        <Array as="points">
                            <mxPoint x="530" y="460"/>
                            <mxPoint x="170" y="460"/>
                        </Array>
                    </mxGeometry>
                </mxCell>
                <mxCell id="qviXmVmv1awcpWfoup3k-66" value="&lt;p style=&quot;margin: 0px ; margin-top: 4px ; text-align: center&quot;&gt;&lt;i&gt;&amp;lt;&amp;lt;Interface&amp;gt;&amp;gt;&lt;/i&gt;&lt;br&gt;&lt;b&gt;ShotStrategy&lt;/b&gt;&lt;/p&gt;&lt;hr size=&quot;1&quot;&gt;&lt;p style=&quot;margin: 0px ; margin-left: 4px&quot;&gt;+ Fire()&lt;br&gt;&lt;/p&gt;" style="verticalAlign=top;align=left;overflow=fill;fontSize=12;fontFamily=Helvetica;html=1;" parent="WIyWlLk6GJQsqaUBKTNV-1" vertex="1">
                    <mxGeometry x="365" y="641" width="190" height="69" as="geometry"/>
                </mxCell>
                <mxCell id="qviXmVmv1awcpWfoup3k-67" value="&lt;p style=&quot;margin: 0px ; margin-top: 4px ; text-align: center&quot;&gt;&lt;i&gt;&amp;lt;&amp;lt;Interface&amp;gt;&amp;gt;&lt;/i&gt;&lt;br&gt;&lt;b&gt;PlacementStrategy&lt;/b&gt;&lt;/p&gt;&lt;hr size=&quot;1&quot;&gt;&lt;p style=&quot;margin: 0px ; margin-left: 4px&quot;&gt;+ field1: Type&lt;br&gt;+ field2: Type&lt;/p&gt;&lt;hr size=&quot;1&quot;&gt;&lt;p style=&quot;margin: 0px ; margin-left: 4px&quot;&gt;+ method1(Type): Type&lt;br&gt;+ method2(Type, Type): Type&lt;/p&gt;" style="verticalAlign=top;align=left;overflow=fill;fontSize=12;fontFamily=Helvetica;html=1;" parent="WIyWlLk6GJQsqaUBKTNV-1" vertex="1">
                    <mxGeometry x="600" y="641" width="190" height="140" as="geometry"/>
                </mxCell>
                <mxCell id="qviXmVmv1awcpWfoup3k-54" value="ExamplePlacementStrategy" style="swimlane;fontStyle=1;align=center;verticalAlign=top;childLayout=stackLayout;horizontal=1;startSize=26;horizontalStack=0;resizeParent=1;resizeParentMax=0;resizeLast=0;collapsible=1;marginBottom=0;" parent="WIyWlLk6GJQsqaUBKTNV-1" vertex="1">
                    <mxGeometry x="600" y="840" width="190" height="34" as="geometry">
                        <mxRectangle x="140" y="230" width="60" height="26" as="alternateBounds"/>
                    </mxGeometry>
                </mxCell>
                <mxCell id="0" value="Board" style="swimlane;fontStyle=1;align=center;verticalAlign=top;childLayout=stackLayout;horizontal=1;startSize=26;horizontalStack=0;resizeParent=1;resizeParentMax=0;resizeLast=0;collapsible=1;marginBottom=0;" vertex="1" parent="WIyWlLk6GJQsqaUBKTNV-1">
                    <mxGeometry x="30" y="810" width="280" height="86" as="geometry">
                        <mxRectangle x="140" y="230" width="60" height="26" as="alternateBounds"/>
                    </mxGeometry>
                </mxCell>
                <mxCell id="2" value="+ Battleship: Ship&lt;4&gt;" style="text;strokeColor=none;fillColor=none;align=left;verticalAlign=top;spacingLeft=4;spacingRight=4;overflow=hidden;rotatable=0;points=[[0,0.5],[1,0.5]];portConstraint=eastwest;" vertex="1" parent="0">
                    <mxGeometry y="26" width="280" height="26" as="geometry"/>
                </mxCell>
                <mxCell id="6" value="" style="line;strokeWidth=1;fillColor=none;align=left;verticalAlign=middle;spacingTop=-1;spacingLeft=3;spacingRight=3;rotatable=0;labelPosition=right;points=[];portConstraint=eastwest;" vertex="1" parent="0">
                    <mxGeometry y="52" width="280" height="8" as="geometry"/>
                </mxCell>
                <mxCell id="7" value="+ Player(PlacementStrategy, ShotStrategy)" style="text;strokeColor=none;fillColor=none;align=left;verticalAlign=top;spacingLeft=4;spacingRight=4;overflow=hidden;rotatable=0;points=[[0,0.5],[1,0.5]];portConstraint=eastwest;" vertex="1" parent="0">
                    <mxGeometry y="60" width="280" height="26" as="geometry"/>
                </mxCell>
                <mxCell id="8" value="2" style="endArrow=diamondThin;html=1;endSize=12;startArrow=none;startSize=14;startFill=0;align=left;verticalAlign=bottom;shadow=1;strokeColor=#f0f0f0;edgeStyle=orthogonalEdgeStyle;rounded=0;endFill=1;exitX=0.5;exitY=0;exitDx=0;exitDy=0;" edge="1" parent="WIyWlLk6GJQsqaUBKTNV-1" source="0" target="qviXmVmv1awcpWfoup3k-40">
                    <mxGeometry x="-0.9048" relative="1" as="geometry">
                        <mxPoint x="480" y="980" as="sourcePoint"/>
                        <mxPoint x="120" y="1067" as="targetPoint"/>
                        <mxPoint as="offset"/>
                        <Array as="points">
                            <mxPoint x="170" y="810"/>
                        </Array>
                    </mxGeometry>
                </mxCell>
                <mxCell id="9" value="2" style="endArrow=diamondThin;html=1;endSize=12;startArrow=none;startSize=14;startFill=0;align=left;verticalAlign=bottom;shadow=1;strokeColor=#f0f0f0;edgeStyle=orthogonalEdgeStyle;rounded=0;endFill=1;exitX=0.5;exitY=0;exitDx=0;exitDy=0;" edge="1" parent="WIyWlLk6GJQsqaUBKTNV-1" source="0" target="qviXmVmv1awcpWfoup3k-40">
                    <mxGeometry x="-0.9048" relative="1" as="geometry">
                        <mxPoint x="180" y="810" as="sourcePoint"/>
                        <mxPoint x="170" y="641" as="targetPoint"/>
                        <mxPoint as="offset"/>
                        <Array as="points">
                            <mxPoint x="170" y="810"/>
                        </Array>
                    </mxGeometry>
                </mxCell>
            </root>
        </mxGraphModel>
    </diagram>
</mxfile>